{
	"asset":{
		"generator":"Khronos glTF Blender I/O v3.6.27",
		"version":"2.0"
	},
	"scene":0,
	"scenes":[
		{
			"name":"Scene",
			"nodes":[
				3
			]
		}
	],
	"nodes":[
		{
			"mesh":0,
			"name":"Cylinder.001",
			"scale":[
				0.792712926864624,
				0.05955146253108978,
				0.792712926864624
			],
			"translation":[
				0,
				4.753106117248535,
				-0.0146666020154953
			]
		},
		{
			"mesh":1,
			"name":"Cylinder.002",
			"scale":[
				1.7772595882415771,
				1.7772595882415771,
				1.7772595882415771
			],
			"translation":[
				0,
				5.082552433013916,
				-0.0146666020154953
			]
		},
		{
			"mesh":2,
			"name":"Cylinder.003",
			"translation":[
				0.0017772597493603826,
				0,
				0
			]
		},
		{
			"children":[
				0,
				1,
				2
			],
			"mesh":3,
			"name":"Cylinder",
			"scale":[
				0.5763099193572998,
				0.5763099193572998,
				0.5763099193572998
			],
			"translation":[
				0,
				-0.38614770770072937,
				0.008252370171248913
			]
		}
	],
	"materials":[
		{
			"doubleSided":true,
			"name":"tutup botol",
			"pbrMetallicRoughness":{
				"baseColorFactor":[
					0.01736864633858204,
					0.01736864633858204,
					0.01736864633858204,
					1
				],
				"metallicFactor":0.6681817770004272
			}
		},
		{
			"doubleSided":true,
			"name":"label",
			"pbrMetallicRoughness":{
				"baseColorTexture":{
					"index":0
				},
				"metallicFactor":0
			}
		},
		{
			"doubleSided":true,
			"name":"botol",
			"pbrMetallicRoughness":{
				"baseColorFactor":[
					0.2151656299829483,
					0.12083051353693008,
					0.04526699706912041,
					1
				],
				"metallicFactor":0.5045454502105713
			}
		}
	],
	"meshes":[
		{
			"name":"Cylinder.001",
			"primitives":[
				{
					"attributes":{
						"POSITION":0,
						"NORMAL":1,
						"TEXCOORD_0":2
					},
					"indices":3,
					"material":0
				}
			]
		},
		{
			"name":"Cylinder.003",
			"primitives":[
				{
					"attributes":{
						"POSITION":4,
						"NORMAL":5,
						"TEXCOORD_0":6
					},
					"indices":7,
					"material":0
				}
			]
		},
		{
			"name":"Cylinder.004",
			"primitives":[
				{
					"attributes":{
						"POSITION":8,
						"NORMAL":9,
						"TEXCOORD_0":10
					},
					"indices":11,
					"material":1
				}
			]
		},
		{
			"name":"Cylinder",
			"primitives":[
				{
					"attributes":{
						"POSITION":12,
						"NORMAL":13,
						"TEXCOORD_0":14
					},
					"indices":15,
					"material":2
				}
			]
		}
	],
	"textures":[
		{
			"sampler":0,
			"source":0
		}
	],
	"images":[
		{
			"bufferView":12,
			"mimeType":"image/png",
			"name":"IMG-20230108-WA0010"
		}
	],
	"accessors":[
		{
			"bufferView":0,
			"componentType":5126,
			"count":724,
			"max":[
				1,
				1,
				1
			],
			"min":[
				-1,
				-1,
				-1
			],
			"type":"VEC3"
		},
		{
			"bufferView":1,
			"componentType":5126,
			"count":724,
			"type":"VEC3"
		},
		{
			"bufferView":2,
			"componentType":5126,
			"count":724,
			"type":"VEC2"
		},
		{
			"bufferView":3,
			"componentType":5123,
			"count":2868,
			"type":"SCALAR"
		},
		{
			"bufferView":4,
			"componentType":5126,
			"count":6430,
			"max":[
				0.4500781297683716,
				0.14334173500537872,
				0.4500781297683716
			],
			"min":[
				-0.4500781297683716,
				-0.14334173500537872,
				-0.4500781297683716
			],
			"type":"VEC3"
		},
		{
			"bufferView":5,
			"componentType":5126,
			"count":6430,
			"type":"VEC3"
		},
		{
			"bufferView":6,
			"componentType":5126,
			"count":6430,
			"type":"VEC2"
		},
		{
			"bufferView":7,
			"componentType":5123,
			"count":13668,
			"type":"SCALAR"
		},
		{
			"bufferView":8,
			"componentType":5126,
			"count":26,
			"max":[
				1,
				3.4901530742645264,
				0.9238795042037964
			],
			"min":[
				0.3826834559440613,
				0.019810259342193604,
				-0.9238795042037964
			],
			"type":"VEC3"
		},
		{
			"bufferView":9,
			"componentType":5126,
			"count":26,
			"type":"VEC3"
		},
		{
			"bufferView":10,
			"componentType":5126,
			"count":26,
			"type":"VEC2"
		},
		{
			"bufferView":11,
			"componentType":5123,
			"count":72,
			"type":"SCALAR"
		},
		{
			"bufferView":13,
			"componentType":5126,
			"count":720,
			"max":[
				1,
				5.250377178192139,
				1
			],
			"min":[
				-1,
				-1,
				-1
			],
			"type":"VEC3"
		},
		{
			"bufferView":14,
			"componentType":5126,
			"count":720,
			"type":"VEC3"
		},
		{
			"bufferView":15,
			"componentType":5126,
			"count":720,
			"type":"VEC2"
		},
		{
			"bufferView":16,
			"componentType":5123,
			"count":3708,
			"type":"SCALAR"
		}
	],
	"bufferViews":[
		{
			"buffer":0,
			"byteLength":8688,
			"byteOffset":0,
			"target":34962
		},
		{
			"buffer":0,
			"byteLength":8688,
			"byteOffset":8688,
			"target":34962
		},
		{
			"buffer":0,
			"byteLength":5792,
			"byteOffset":17376,
			"target":34962
		},
		{
			"buffer":0,
			"byteLength":5736,
			"byteOffset":23168,
			"target":34963
		},
		{
			"buffer":0,
			"byteLength":77160,
			"byteOffset":28904,
			"target":34962
		},
		{
			"buffer":0,
			"byteLength":77160,
			"byteOffset":106064,
			"target":34962
		},
		{
			"buffer":0,
			"byteLength":51440,
			"byteOffset":183224,
			"target":34962
		},
		{
			"buffer":0,
			"byteLength":27336,
			"byteOffset":234664,
			"target":34963
		},
		{
			"buffer":0,
			"byteLength":312,
			"byteOffset":262000,
			"target":34962
		},
		{
			"buffer":0,
			"byteLength":312,
			"byteOffset":262312,
			"target":34962
		},
		{
			"buffer":0,
			"byteLength":208,
			"byteOffset":262624,
			"target":34962
		},
		{
			"buffer":0,
			"byteLength":144,
			"byteOffset":262832,
			"target":34963
		},
		{
			"buffer":0,
			"byteLength":177770,
			"byteOffset":262976
		},
		{
			"buffer":0,
			"byteLength":8640,
			"byteOffset":440748,
			"target":34962
		},
		{
			"buffer":0,
			"byteLength":8640,
			"byteOffset":449388,
			"target":34962
		},
		{
			"buffer":0,
			"byteLength":5760,
			"byteOffset":458028,
			"target":34962
		},
		{
			"buffer":0,
			"byteLength":7416,
			"byteOffset":463788,
			"target":34963
		}
	],
	"samplers":[
		{
			"magFilter":9729,
			"minFilter":9987,
			"wrapS":33071,
			"wrapT":33071
		}
	],
	"buffers":[
		{
			"byteLength":471204,
			"uri":"data:application/octet-stream;base64,"
		}
	]
}
