{
	"asset":{
		"generator":"Khronos glTF Blender I/O v3.6.27",
		"version":"2.0"
	},
	"scene":0,
	"scenes":[
		{
			"name":"Scene",
			"nodes":[
				0,
				1,
				2
			]
		}
	],
	"nodes":[
		{
			"mesh":0,
			"name":"cup",
			"rotation":[
				0,
				0.23262760043144226,
				0,
				0.9725658893585205
			],
			"translation":[
				0,
				0.9697539210319519,
				0
			]
		},
		{
			"mesh":1,
			"name":"liquid",
			"rotation":[
				0,
				0.26702532172203064,
				0,
				0.9636895060539246
			],
			"scale":[
				1.2696064710617065,
				0.7227620482444763,
				1.2696064710617065
			],
			"translation":[
				0,
				1.1506837606430054,
				0
			]
		},
		{
			"mesh":2,
			"name":"pisin",
			"scale":[
				1.5009640455245972,
				1.5009640455245972,
				1.5009640455245972
			],
			"translation":[
				0,
				0.5852654576301575,
				0
			]
		}
	],
	"materials":[
		{
			"doubleSided":true,
			"name":"Material",
			"pbrMetallicRoughness":{
				"baseColorTexture":{
					"index":0
				},
				"metallicFactor":0.2295081913471222,
				"roughnessFactor":0.2049180269241333
			}
		},
		{
			"doubleSided":true,
			"name":"Material.002",
			"pbrMetallicRoughness":{
				"baseColorTexture":{
					"index":1
				},
				"metallicFactor":0,
				"roughnessFactor":0.5
			}
		},
		{
			"doubleSided":true,
			"name":"Material.001",
			"pbrMetallicRoughness":{
				"baseColorTexture":{
					"index":2
				},
				"metallicFactor":0,
				"roughnessFactor":0.22131147980690002
			}
		}
	],
	"meshes":[
		{
			"name":"Cylinder.002",
			"primitives":[
				{
					"attributes":{
						"POSITION":0,
						"NORMAL":1,
						"TEXCOORD_0":2
					},
					"indices":3,
					"material":0
				}
			]
		},
		{
			"name":"Cylinder.004",
			"primitives":[
				{
					"attributes":{
						"POSITION":4,
						"NORMAL":5,
						"TEXCOORD_0":6
					},
					"indices":7,
					"material":1
				}
			]
		},
		{
			"name":"Circle",
			"primitives":[
				{
					"attributes":{
						"POSITION":8,
						"NORMAL":9,
						"TEXCOORD_0":10
					},
					"indices":11,
					"material":2
				}
			]
		}
	],
	"textures":[
		{
			"sampler":0,
			"source":0
		},
		{
			"sampler":0,
			"source":1
		},
		{
			"sampler":0,
			"source":2
		}
	],
	"images":[
		{
			"bufferView":4,
			"mimeType":"image/png",
			"name":"cup_template"
		},
		{
			"bufferView":9,
			"mimeType":"image/png",
			"name":"cawfee1"
		},
		{
			"bufferView":14,
			"mimeType":"image/png",
			"name":"coaster_template"
		}
	],
	"accessors":[
		{
			"bufferView":0,
			"componentType":5126,
			"count":4673,
			"max":[
				1.5310068130493164,
				0.7218312621116638,
				0.9783365726470947
			],
			"min":[
				-0.9783365726470947,
				-0.5969206690788269,
				-0.9783365726470947
			],
			"type":"VEC3"
		},
		{
			"bufferView":1,
			"componentType":5126,
			"count":4673,
			"type":"VEC3"
		},
		{
			"bufferView":2,
			"componentType":5126,
			"count":4673,
			"type":"VEC2"
		},
		{
			"bufferView":3,
			"componentType":5123,
			"count":13872,
			"type":"SCALAR"
		},
		{
			"bufferView":5,
			"componentType":5126,
			"count":529,
			"max":[
				0.7342379093170166,
				0.5860674381256104,
				0.7342379093170166
			],
			"min":[
				-0.7342379093170166,
				0.3482051491737366,
				-0.7342379093170166
			],
			"type":"VEC3"
		},
		{
			"bufferView":6,
			"componentType":5126,
			"count":529,
			"type":"VEC3"
		},
		{
			"bufferView":7,
			"componentType":5126,
			"count":529,
			"type":"VEC2"
		},
		{
			"bufferView":8,
			"componentType":5123,
			"count":3024,
			"type":"SCALAR"
		},
		{
			"bufferView":10,
			"componentType":5126,
			"count":1108,
			"max":[
				0.9786714315414429,
				-0.005426088348031044,
				0.9786714911460876
			],
			"min":[
				-0.9786714315414429,
				-0.178979754447937,
				-0.9786714911460876
			],
			"type":"VEC3"
		},
		{
			"bufferView":11,
			"componentType":5126,
			"count":1108,
			"type":"VEC3"
		},
		{
			"bufferView":12,
			"componentType":5126,
			"count":1108,
			"type":"VEC2"
		},
		{
			"bufferView":13,
			"componentType":5123,
			"count":5946,
			"type":"SCALAR"
		}
	],
	"bufferViews":[
		{
			"buffer":0,
			"byteLength":56076,
			"byteOffset":0,
			"target":34962
		},
		{
			"buffer":0,
			"byteLength":56076,
			"byteOffset":56076,
			"target":34962
		},
		{
			"buffer":0,
			"byteLength":37384,
			"byteOffset":112152,
			"target":34962
		},
		{
			"buffer":0,
			"byteLength":27744,
			"byteOffset":149536,
			"target":34963
		},
		{
			"buffer":0,
			"byteLength":40398,
			"byteOffset":177280
		},
		{
			"buffer":0,
			"byteLength":6348,
			"byteOffset":217680,
			"target":34962
		},
		{
			"buffer":0,
			"byteLength":6348,
			"byteOffset":224028,
			"target":34962
		},
		{
			"buffer":0,
			"byteLength":4232,
			"byteOffset":230376,
			"target":34962
		},
		{
			"buffer":0,
			"byteLength":6048,
			"byteOffset":234608,
			"target":34963
		},
		{
			"buffer":0,
			"byteLength":967135,
			"byteOffset":240656
		},
		{
			"buffer":0,
			"byteLength":13296,
			"byteOffset":1207792,
			"target":34962
		},
		{
			"buffer":0,
			"byteLength":13296,
			"byteOffset":1221088,
			"target":34962
		},
		{
			"buffer":0,
			"byteLength":8864,
			"byteOffset":1234384,
			"target":34962
		},
		{
			"buffer":0,
			"byteLength":11892,
			"byteOffset":1243248,
			"target":34963
		},
		{
			"buffer":0,
			"byteLength":40261,
			"byteOffset":1255140
		}
	],
	"samplers":[
		{
			"magFilter":9729,
			"minFilter":9987
		}
	],
	"buffers":[
		{
			"byteLength":1295404,
			"uri":"data:application/octet-stream;base64,"
		}
	]
}
