{
	"asset":{
		"generator":"Khronos glTF Blender I/O v3.6.27",
		"version":"2.0"
	},
	"scene":0,
	"scenes":[
		{
			"name":"Scene",
			"nodes":[
				0,
				1
			]
		}
	],
	"nodes":[
		{
			"mesh":0,
			"name":"Circle"
		},
		{
			"mesh":1,
			"name":"Circle.001",
			"scale":[
				1.0035442113876343,
				1.0035442113876343,
				1.0035442113876343
			]
		}
	],
	"materials":[
		{
			"alphaMode":"BLEND",
			"doubleSided":true,
			"name":"Material.001",
			"pbrMetallicRoughness":{
				"baseColorFactor":[
					1,
					1,
					1,
					0.3768116235733032
				],
				"roughnessFactor":0.6231883764266968
			}
		},
		{
			"doubleSided":true,
			"name":"Material.002",
			"pbrMetallicRoughness":{
				"baseColorTexture":{
					"index":0
				},
				"metallicFactor":0,
				"roughnessFactor":0
			}
		}
	],
	"meshes":[
		{
			"name":"Circle.001",
			"primitives":[
				{
					"attributes":{
						"POSITION":0,
						"NORMAL":1,
						"TEXCOORD_0":2
					},
					"indices":3,
					"material":0
				}
			]
		},
		{
			"name":"Circle.002",
			"primitives":[
				{
					"attributes":{
						"POSITION":4,
						"NORMAL":5,
						"TEXCOORD_0":6
					},
					"indices":7,
					"material":1
				}
			]
		}
	],
	"textures":[
		{
			"sampler":0,
			"source":0
		}
	],
	"images":[
		{
			"bufferView":8,
			"mimeType":"image/png",
			"name":"cawfee_template_AM"
		}
	],
	"accessors":[
		{
			"bufferView":0,
			"componentType":5126,
			"count":1088,
			"max":[
				1.3129944801330566,
				2.5894980430603027,
				1.3129947185516357
			],
			"min":[
				-1.3129944801330566,
				0,
				-1.3129944801330566
			],
			"type":"VEC3"
		},
		{
			"bufferView":1,
			"componentType":5126,
			"count":1088,
			"type":"VEC3"
		},
		{
			"bufferView":2,
			"componentType":5126,
			"count":1088,
			"type":"VEC2"
		},
		{
			"bufferView":3,
			"componentType":5123,
			"count":6132,
			"type":"SCALAR"
		},
		{
			"bufferView":4,
			"componentType":5126,
			"count":776,
			"max":[
				1.2430341243743896,
				1.572853684425354,
				1.2430343627929688
			],
			"min":[
				-1.2430341243743896,
				0.06860177218914032,
				-1.2430341243743896
			],
			"type":"VEC3"
		},
		{
			"bufferView":5,
			"componentType":5126,
			"count":776,
			"type":"VEC3"
		},
		{
			"bufferView":6,
			"componentType":5126,
			"count":776,
			"type":"VEC2"
		},
		{
			"bufferView":7,
			"componentType":5123,
			"count":3060,
			"type":"SCALAR"
		}
	],
	"bufferViews":[
		{
			"buffer":0,
			"byteLength":13056,
			"byteOffset":0,
			"target":34962
		},
		{
			"buffer":0,
			"byteLength":13056,
			"byteOffset":13056,
			"target":34962
		},
		{
			"buffer":0,
			"byteLength":8704,
			"byteOffset":26112,
			"target":34962
		},
		{
			"buffer":0,
			"byteLength":12264,
			"byteOffset":34816,
			"target":34963
		},
		{
			"buffer":0,
			"byteLength":9312,
			"byteOffset":47080,
			"target":34962
		},
		{
			"buffer":0,
			"byteLength":9312,
			"byteOffset":56392,
			"target":34962
		},
		{
			"buffer":0,
			"byteLength":6208,
			"byteOffset":65704,
			"target":34962
		},
		{
			"buffer":0,
			"byteLength":6120,
			"byteOffset":71912,
			"target":34963
		},
		{
			"buffer":0,
			"byteLength":600171,
			"byteOffset":78032
		}
	],
	"samplers":[
		{
			"magFilter":9729,
			"minFilter":9987
		}
	],
	"buffers":[
		{
			"byteLength":678204,
			"uri":"data:application/octet-stream;base64,"
		}
	]
}
